# xmcd
#
# Track frame offsets:
#	150
#	17548
#	31225
#	48662
#	59782
#	79842
#	93229
#	111551
#	125847
#	137396
#	148744
#	169531
#
# Disc length: 2417 seconds
#
# Revision: 1
# Processed by: cddbd v1.5.2PL0 Copyright (c) Steve Scherf et al.
# Submitted via: audiograbber 1.83.01
#
DISCID=a8096f0c
DTITLE=John Fogerty - The Blue Ridge Rangers Rides Again
DYEAR=2009
DGENRE=Country/Rock
TTITLE0=Paradise
TTITLE1=Never Ending Song Of Love
TTITLE2=Garden Party
TTITLE3=I Don't Care (Just As Long As You Love Me)
TTITLE4=Back Home Again
TTITLE5=I'll Be There
TTITLE6=Change In The Weather
TTITLE7=Moody River
TTITLE8=Heaven's Just A Sin Away
TTITLE9=Fallin' Fallin' Fallin'
TTITLE10=Haunted House
TTITLE11=When Will I Be Loved
EXTD=
EXTT0=
EXTT1=
EXTT2=
EXTT3=
EXTT4=
EXTT5=
EXTT6=
EXTT7=
EXTT8=
EXTT9=
EXTT10=
EXTT11=
PLAYORDER=
